<?xml version="1.0" standalone="no"?>
<!DOCTYPE svg PUBLIC "-//W3C//DTD SVG 20010904//EN"
 "http://www.w3.org/TR/2001/REC-SVG-20010904/DTD/svg10.dtd">
<svg version="1.0" xmlns="http://www.w3.org/2000/svg"
 width="1563.000000pt" height="1563.000000pt" viewBox="0 0 1563.000000 1563.000000"
 preserveAspectRatio="xMidYMid meet">

<g transform="translate(0.000000,1563.000000) scale(0.100000,-0.100000)"
fill="#000000" stroke="none">
<path d="M7618 13755 c-2 -3 -94 -5 -203 -5 -110 -1 -219 -5 -243 -10 -49 -9
-93 -45 -117 -97 -23 -47 -50 -189 -70 -358 -20 -181 -31 -226 -59 -256 -30
-31 -64 -59 -73 -59 -3 0 -15 -8 -26 -17 -15 -13 -18 -14 -12 -3 8 13 6 13 -8
2 -9 -8 -21 -11 -27 -7 -5 3 -10 2 -10 -4 0 -5 -8 -8 -17 -7 -28 4 -115 -14
-204 -45 -73 -24 -198 -46 -246 -42 -7 0 -25 1 -40 2 -18 1 -40 16 -70 48 -23
26 -43 51 -43 56 0 5 -16 27 -35 50 -19 22 -35 45 -35 50 0 5 -8 21 -19 35
-20 28 -48 77 -89 152 -13 25 -27 47 -31 50 -3 3 -28 30 -54 61 -66 79 -89 87
-185 65 -43 -10 -92 -27 -110 -37 -18 -10 -66 -33 -107 -50 -41 -17 -75 -35
-75 -40 0 -5 -3 -8 -7 -7 -19 5 -121 -38 -155 -65 -53 -43 -61 -69 -52 -179 9
-109 6 -90 26 -158 9 -30 29 -116 44 -190 14 -74 30 -139 34 -145 9 -12 4 -46
-16 -108 -16 -47 -83 -127 -107 -127 -7 0 -28 -13 -47 -28 -48 -38 -164 -112
-177 -112 -5 0 -18 -9 -28 -20 -10 -11 -24 -20 -31 -20 -8 0 -28 -9 -46 -20
-61 -37 -150 -18 -227 50 -18 17 -37 30 -40 30 -3 0 -17 10 -31 23 -14 12 -56
42 -95 67 -38 25 -83 57 -100 71 -50 43 -149 91 -181 87 -51 -6 -130 -64 -251
-186 -199 -199 -234 -249 -235 -333 -1 -80 116 -249 261 -378 39 -35 82 -81
94 -103 12 -23 30 -55 39 -72 34 -62 9 -148 -107 -369 -29 -56 -76 -160 -105
-232 -66 -165 -138 -315 -161 -335 -3 -3 -14 -20 -24 -37 -11 -18 -22 -33 -26
-33 -9 0 -69 -103 -94 -160 -28 -66 -111 -158 -152 -169 -20 -6 -96 -6 -196 0
-232 13 -421 6 -476 -16 -38 -16 -47 -26 -72 -82 -18 -41 -33 -96 -39 -146
-27 -229 -41 -339 -42 -345 -1 -4 1 -25 5 -47 9 -53 46 -87 122 -113 131 -44
252 -82 295 -92 25 -7 59 -18 75 -25 17 -7 55 -21 85 -31 117 -36 138 -76 139
-270 2 -171 0 -178 -72 -230 -69 -50 -111 -65 -281 -104 -143 -32 -277 -78
-307 -106 -31 -28 -59 -88 -59 -126 0 -17 5 -68 10 -112 6 -45 17 -138 25
-207 17 -147 45 -246 78 -277 40 -37 219 -53 362 -33 39 5 104 13 145 16 41 3
105 8 142 11 43 4 78 2 95 -5 33 -14 76 -85 114 -186 33 -90 41 -104 79 -140
53 -49 120 -142 135 -186 9 -23 19 -47 24 -53 4 -6 18 -38 30 -71 21 -58 57
-146 109 -270 31 -75 107 -229 135 -274 31 -50 29 -113 -5 -148 -16 -16 -28
-33 -28 -37 0 -5 -34 -47 -76 -95 -106 -121 -124 -139 -183 -196 -52 -48 -111
-149 -111 -187 0 -44 54 -133 146 -239 169 -195 322 -339 361 -339 7 0 35 13
63 30 28 16 54 30 59 30 4 0 16 9 27 21 10 12 32 28 47 36 16 8 55 35 88 61
146 114 187 142 229 158 25 10 51 22 57 27 33 24 136 -8 232 -72 14 -10 58
-39 98 -65 80 -53 123 -92 161 -150 41 -61 40 -158 -3 -306 -45 -152 -66 -361
-41 -408 18 -34 88 -84 206 -145 84 -43 261 -117 282 -117 7 0 34 -7 59 -16
45 -16 46 -16 85 9 70 47 137 134 238 312 25 44 77 114 115 155 l68 75 54 -1
c30 0 77 -8 104 -17 28 -9 91 -24 140 -32 50 -9 126 -26 170 -39 44 -13 92
-27 107 -30 69 -16 126 -99 134 -199 17 -197 25 -252 48 -329 16 -51 36 -93
50 -107 48 -45 148 -61 398 -61 272 0 316 7 362 62 27 31 36 53 46 116 7 42
16 93 20 112 5 19 11 51 14 70 41 279 50 297 162 343 78 32 71 30 215 56 58
11 121 27 139 36 20 11 67 20 118 23 l84 5 67 -71 c37 -39 83 -99 102 -133 64
-116 75 -135 107 -181 18 -26 32 -50 32 -55 0 -4 18 -25 41 -46 22 -21 38 -41
36 -43 -7 -7 42 -54 56 -54 32 0 323 107 377 138 19 11 55 28 80 38 58 23 157
90 177 120 16 25 14 92 -9 234 -13 82 -11 75 -31 140 -67 223 -63 299 21 388
98 105 339 262 400 262 29 0 151 -58 207 -99 28 -20 85 -63 127 -96 131 -102
248 -174 284 -175 45 0 172 109 279 240 20 25 44 52 54 60 32 28 147 165 169
201 41 67 28 100 -83 219 -29 30 -87 96 -131 145 -43 50 -81 92 -85 95 -3 3
-31 38 -62 79 -48 62 -57 79 -57 115 0 22 9 57 19 76 11 19 31 58 45 85 14 28
32 61 40 75 26 41 166 351 166 366 0 4 13 35 29 68 15 34 37 82 49 107 11 25
44 72 74 104 78 84 99 120 116 194 13 59 21 72 73 124 l58 59 83 -7 c46 -3
119 -10 163 -15 44 -6 143 -10 221 -10 122 0 150 3 199 22 31 12 63 31 70 42
30 46 76 232 85 346 6 63 17 140 25 170 18 67 19 121 3 142 -23 27 -102 74
-148 87 -25 7 -63 21 -85 31 -22 11 -69 24 -105 29 -36 6 -114 27 -174 46
-123 39 -189 84 -204 138 -5 18 -6 95 -2 172 7 147 20 194 59 215 22 11 182
68 281 98 75 24 223 80 293 112 77 35 103 99 77 190 -6 19 -13 64 -16 100 -12
149 -60 350 -95 393 -22 29 -118 58 -169 52 -32 -3 -501 -18 -559 -17 -37 0
-122 100 -149 175 -14 38 -46 91 -83 137 -33 41 -71 99 -85 130 -111 237 -129
278 -190 435 -26 66 -54 131 -63 145 -10 14 -24 41 -31 60 -8 19 -27 59 -42
89 -20 38 -28 68 -28 105 0 47 5 58 51 120 28 37 57 70 65 73 8 3 14 9 14 13
0 5 23 33 51 62 58 61 181 226 222 299 l29 50 -29 56 c-20 40 -75 104 -191
222 -89 91 -181 186 -205 210 -40 41 -44 43 -93 39 -32 -3 -63 -13 -85 -29
-19 -13 -41 -29 -50 -34 -104 -66 -151 -99 -230 -162 -23 -18 -45 -33 -49 -33
-4 0 -27 -16 -50 -35 -50 -42 -106 -58 -180 -53 -43 3 -70 13 -125 48 -38 24
-83 56 -100 71 -16 15 -41 30 -55 34 -27 9 -196 173 -186 182 3 3 0 13 -7 21
-10 13 -9 14 1 8 11 -7 12 -4 3 12 -11 20 0 72 20 98 5 6 13 44 19 85 14 97
47 261 61 296 17 44 23 178 10 210 -8 19 -31 38 -74 60 -93 47 -247 119 -287
134 -19 7 -40 16 -46 21 -21 15 -152 48 -194 48 -26 0 -46 -6 -57 -19 -53 -56
-98 -113 -124 -157 -16 -27 -47 -78 -69 -113 -22 -34 -40 -65 -40 -68 0 -3
-15 -24 -33 -47 -18 -23 -40 -53 -50 -68 -17 -27 -85 -98 -96 -99 -3 0 -26 -2
-50 -5 -47 -6 -168 15 -266 46 -33 10 -96 24 -140 30 -44 7 -87 14 -95 18 -8
3 -22 6 -32 6 -55 3 -109 93 -121 201 -3 28 -12 84 -21 125 -8 41 -20 128 -26
193 -11 126 -23 166 -65 221 -19 25 -38 37 -73 45 -65 15 -100 20 -104 16z
m77 -1346 c234 -19 392 -41 565 -81 162 -36 334 -90 410 -128 78 -40 216 -100
227 -100 36 0 221 -96 383 -200 21 -14 83 -53 137 -88 54 -35 132 -95 173
-133 41 -39 100 -83 130 -99 30 -15 75 -51 100 -79 25 -28 81 -85 125 -128
134 -131 156 -154 186 -202 16 -25 47 -64 70 -86 38 -36 78 -90 134 -179 11
-17 40 -60 65 -95 94 -132 122 -179 172 -281 28 -58 81 -168 118 -245 88 -180
174 -450 195 -610 4 -27 15 -81 26 -120 31 -112 48 -243 65 -505 12 -198 13
-274 4 -395 -36 -482 -68 -643 -207 -1060 -37 -110 -114 -278 -133 -290 -6 -4
-36 -58 -66 -122 -54 -113 -85 -164 -164 -273 -21 -30 -51 -72 -65 -93 -46
-68 -118 -161 -163 -212 -25 -27 -63 -71 -86 -96 -23 -25 -54 -63 -71 -85 -16
-21 -50 -56 -75 -79 -25 -22 -63 -58 -85 -81 -52 -53 -190 -174 -199 -174 -6
0 -182 -133 -216 -163 -44 -39 -213 -140 -401 -239 -29 -16 -64 -35 -77 -44
-33 -22 -184 -82 -247 -99 -27 -7 -77 -25 -110 -39 -33 -14 -70 -26 -83 -26
-13 0 -47 -11 -77 -25 -29 -14 -89 -32 -132 -40 -43 -9 -99 -22 -125 -31 -70
-23 -212 -44 -297 -44 -40 0 -121 -7 -180 -16 -83 -12 -157 -15 -341 -11 -129
3 -248 8 -265 11 -16 3 -77 8 -135 11 -58 4 -148 15 -200 26 -52 11 -136 29
-187 39 -51 11 -127 32 -170 48 -92 33 -259 87 -323 103 -63 16 -189 69 -225
95 -16 12 -68 40 -115 64 -169 83 -226 114 -270 145 -25 18 -50 34 -56 36 -6
2 -24 14 -40 26 -94 73 -136 103 -198 143 -41 26 -97 76 -139 124 -39 45 -87
93 -107 107 -36 27 -112 105 -235 243 -76 85 -88 102 -160 219 -27 42 -52 77
-55 77 -20 0 -168 250 -263 440 -168 340 -261 643 -324 1055 -26 170 -28 198
-27 520 0 326 1 346 27 493 15 85 44 220 63 300 20 81 37 154 39 162 2 8 11
37 20 63 9 27 25 78 35 115 25 92 72 215 84 224 6 4 7 8 3 8 -5 0 1 13 12 28
11 16 30 53 41 83 12 30 25 58 29 64 5 5 18 36 29 67 33 88 109 218 211 358
22 30 57 89 77 130 25 49 62 101 109 150 39 41 84 93 100 115 53 72 329 341
395 385 36 24 99 75 140 115 41 39 102 86 135 105 33 18 98 59 145 90 184 124
193 128 425 225 50 21 137 59 195 84 58 26 139 57 180 69 180 52 538 113 755
127 55 4 102 9 105 12 7 6 347 1 455 -8z"/>
<path d="M7025 11974 c-60 -7 -155 -25 -210 -39 -55 -14 -108 -25 -119 -25
-10 0 -35 -9 -55 -19 -37 -20 -67 -32 -88 -37 -7 -1 -44 -18 -84 -38 -40 -20
-100 -43 -133 -52 -34 -9 -80 -24 -103 -35 -23 -10 -46 -19 -51 -19 -16 0
-177 -85 -214 -113 -19 -15 -39 -27 -45 -27 -6 0 -28 -12 -49 -26 -21 -15 -56
-33 -77 -40 -21 -8 -52 -25 -69 -39 -16 -14 -35 -25 -42 -25 -7 0 -22 -10 -33
-22 -29 -33 -117 -102 -191 -150 -56 -37 -402 -372 -410 -398 -2 -6 -27 -34
-55 -63 -46 -47 -137 -175 -137 -193 0 -4 -14 -25 -30 -48 -47 -64 -97 -143
-127 -199 -65 -126 -113 -228 -113 -240 0 -8 -12 -36 -26 -63 -141 -270 -154
-311 -200 -654 -20 -148 -26 -247 -31 -495 -8 -425 10 -620 83 -890 35 -132
97 -301 140 -387 13 -26 24 -53 24 -61 0 -23 124 -259 199 -377 22 -36 53 -85
68 -110 15 -25 37 -58 50 -73 13 -16 23 -34 23 -40 0 -7 23 -37 51 -67 74 -80
145 -163 155 -182 11 -20 93 -104 135 -138 17 -14 57 -50 88 -81 55 -55 126
-110 286 -219 44 -30 86 -60 93 -67 7 -7 26 -20 42 -30 17 -9 30 -21 30 -25 0
-5 28 -22 63 -39 34 -16 73 -36 87 -44 14 -8 32 -15 40 -15 14 0 183 -83 233
-114 12 -8 40 -19 62 -26 22 -7 56 -23 75 -35 20 -13 56 -26 80 -30 43 -7 55
-9 98 -19 10 -2 35 -11 55 -20 34 -14 106 -30 192 -43 17 -2 64 -13 105 -24
106 -29 493 -44 770 -31 216 10 228 12 555 99 123 32 156 42 315 98 58 20 168
71 255 117 17 9 71 37 122 62 50 24 115 60 145 80 173 115 332 230 407 296 88
76 276 262 321 315 13 17 46 55 73 85 53 59 167 207 167 216 0 3 13 24 28 47
35 51 92 140 120 187 37 60 132 258 132 274 0 14 37 100 100 231 46 95 77 213
143 540 8 41 12 192 12 475 l0 415 -34 190 c-18 105 -44 222 -58 260 -14 39
-27 88 -30 110 -3 22 -15 56 -27 75 -12 19 -31 57 -41 85 -10 27 -24 56 -32
63 -7 7 -20 39 -29 70 -17 56 -33 92 -46 102 -3 3 -16 29 -27 59 -12 29 -33
68 -46 85 -14 18 -25 37 -25 43 0 5 -9 21 -21 34 -12 13 -35 44 -52 69 -17 25
-37 49 -44 53 -7 4 -13 14 -13 21 0 36 -291 381 -413 491 -37 32 -67 64 -67
70 0 5 -27 33 -61 60 -33 28 -71 60 -85 73 -14 12 -30 22 -37 22 -7 0 -48 31
-92 68 -70 60 -219 155 -221 142 0 -3 -16 7 -35 21 -19 14 -53 36 -76 49 -24
13 -43 28 -43 32 0 10 -73 45 -121 58 -31 9 -59 -8 -59 -35 0 -7 -16 -28 -35
-46 -19 -19 -35 -41 -35 -49 0 -9 -4 -20 -8 -26 -5 -5 -18 -25 -30 -45 l-22
-36 48 -30 c26 -16 67 -38 92 -49 57 -24 139 -73 182 -108 84 -69 121 -96 128
-96 5 0 30 -18 55 -40 25 -22 52 -40 60 -40 11 0 91 -77 250 -239 6 -6 54 -55
108 -108 113 -112 124 -124 146 -156 9 -13 39 -57 66 -97 28 -40 56 -85 64
-99 8 -14 29 -48 48 -75 18 -26 33 -52 33 -57 0 -5 11 -26 25 -47 13 -20 31
-57 40 -82 8 -25 26 -67 39 -95 26 -55 45 -110 82 -230 13 -44 28 -89 34 -100
5 -11 19 -49 31 -85 12 -36 33 -87 47 -115 21 -42 25 -63 24 -135 0 -47 -4
-96 -9 -109 l-9 -24 -30 32 c-31 33 -39 39 -115 80 -57 30 -135 106 -160 154
-11 21 -37 63 -57 94 -20 31 -48 75 -62 99 -93 158 -120 197 -156 220 -50 34
-71 -24 -37 -102 21 -50 20 -46 38 -134 8 -41 24 -95 34 -120 31 -75 53 -197
49 -270 -3 -54 -12 -83 -46 -151 -89 -181 -98 -243 -61 -466 16 -97 20 -158
17 -253 -4 -118 -7 -130 -41 -208 -20 -45 -56 -115 -80 -155 -25 -40 -60 -101
-78 -136 -116 -220 -166 -284 -249 -319 -44 -18 -109 -11 -149 17 -17 13 -47
54 -68 94 l-37 72 -4 187 c-4 205 -7 189 67 398 42 120 51 190 31 260 -18 65
-73 143 -140 197 -56 45 -82 58 -190 93 -214 68 -317 145 -413 306 -81 138
-107 259 -82 396 9 46 22 121 31 168 15 83 59 187 108 253 12 16 55 53 96 82
41 30 103 85 138 124 67 75 127 111 184 111 19 0 76 -13 126 -30 112 -37 201
-41 231 -11 30 30 49 73 45 101 -12 75 -127 219 -192 241 -72 24 -190 2 -268
-49 -36 -25 -60 -32 -122 -37 -42 -4 -81 -7 -87 -7 -5 -1 -31 2 -56 6 -40 7
-49 13 -68 46 -11 21 -22 48 -23 61 -2 34 48 188 68 210 11 12 17 37 18 72 0
57 -20 101 -91 193 -38 51 -63 117 -63 168 1 46 31 103 94 176 64 73 115 168
123 227 5 38 3 41 -51 88 -45 38 -77 55 -158 82 -55 18 -113 33 -127 33 -15 0
-58 9 -96 19 -171 47 -227 53 -560 56 -224 2 -353 -1 -430 -11z m495 -303 c19
-10 49 -37 65 -60 28 -40 30 -49 32 -145 1 -57 -2 -118 -7 -137 -5 -19 -11
-52 -14 -74 -3 -22 -12 -87 -20 -145 -9 -58 -18 -143 -20 -190 -6 -101 -15
-150 -28 -150 -5 0 -6 -4 -3 -10 3 -5 1 -10 -5 -10 -6 0 -9 -4 -6 -9 3 -4 -2
-26 -10 -49 -15 -37 -22 -42 -92 -68 -143 -52 -235 -43 -298 30 -19 22 -40 47
-45 54 -6 7 -19 60 -30 119 -24 123 -51 178 -112 223 -52 38 -89 39 -126 3
-56 -55 -58 -100 -8 -180 28 -45 36 -135 15 -160 -11 -14 -11 -15 1 -8 18 10
-36 -62 -58 -78 -37 -27 -71 -80 -71 -108 0 -47 14 -65 151 -199 106 -105 128
-132 134 -164 9 -47 1 -132 -16 -170 -17 -36 -103 -79 -207 -102 -157 -35
-360 -195 -403 -319 -10 -29 -13 -82 -11 -194 3 -176 -1 -186 -71 -219 -87
-41 -182 -27 -207 31 -6 12 -14 29 -19 37 -4 8 -16 32 -26 53 -33 68 -64 82
-185 82 -127 0 -198 -18 -211 -52 -28 -74 40 -159 191 -236 100 -50 140 -88
220 -206 64 -94 72 -97 276 -93 158 2 176 1 249 -23 43 -13 95 -35 115 -49 20
-13 59 -35 87 -49 70 -36 132 -79 170 -119 42 -43 87 -145 103 -232 21 -112
70 -154 230 -196 113 -30 186 -67 224 -113 28 -35 31 -47 34 -120 2 -52 -2
-108 -12 -151 -15 -61 -24 -79 -77 -138 -68 -77 -89 -129 -89 -227 0 -36 -10
-100 -21 -143 -20 -75 -24 -81 -73 -117 -44 -33 -132 -74 -241 -113 -16 -6
-66 -26 -110 -44 -44 -17 -98 -37 -119 -44 -79 -25 -173 -79 -213 -123 -70
-76 -76 -95 -83 -262 -9 -193 -16 -209 -94 -213 -58 -3 -102 12 -141 49 -11
10 -31 29 -46 41 -14 13 -34 39 -46 59 -28 48 -98 266 -112 349 -7 36 -16 89
-21 119 -19 105 -7 244 31 370 10 35 19 73 19 85 0 40 -47 121 -106 184 -33
35 -75 94 -93 130 -18 37 -49 97 -67 135 -32 63 -84 245 -84 294 0 12 11 62
24 110 29 105 56 249 56 295 0 18 -15 65 -34 103 -27 58 -52 87 -137 167 -135
126 -148 138 -248 215 -122 96 -143 118 -246 257 -30 41 -71 84 -90 96 l-37
23 -71 -23 c-40 -13 -79 -25 -87 -28 -8 -3 -18 -6 -22 -7 -5 -2 -10 -4 -13 -5
-14 -7 -31 -5 -44 4 -12 9 -13 8 -6 -4 4 -8 -11 4 -34 27 -50 51 -52 73 -12
162 56 124 80 196 92 271 20 132 105 345 180 452 11 14 19 29 19 32 0 17 137
228 203 312 18 23 60 78 95 123 109 140 312 314 667 569 71 51 466 238 570
270 55 17 188 47 295 67 107 20 233 45 280 56 141 33 171 37 275 38 80 1 107
-3 135 -18z m568 -483 c46 -36 53 -81 28 -176 -26 -95 -60 -126 -154 -138 -47
-5 -51 -4 -86 30 -20 20 -35 40 -34 44 1 4 -5 18 -14 32 -21 32 -19 117 5 153
29 45 79 75 127 79 55 4 105 -5 128 -24z m-36 -675 c54 -45 58 -53 58 -156 0
-143 -28 -205 -115 -249 -56 -29 -177 -37 -219 -14 -35 18 -66 66 -66 100 0
12 -8 32 -17 45 -12 18 -13 22 -2 16 11 -6 12 -5 2 6 -19 19 -16 134 3 175 11
22 35 44 72 65 60 34 104 46 187 48 44 1 56 -4 97 -36z m-340 -708 c35 -61 32
-118 -8 -178 -25 -39 -27 -39 -73 -34 -64 8 -107 34 -130 80 -15 30 -17 46
-10 70 20 72 84 120 153 115 36 -3 42 -8 68 -53z m-736 -387 c111 -107 113
-336 4 -390 -42 -22 -194 -25 -237 -5 -43 19 -103 82 -114 119 -24 84 -2 184
52 235 63 61 113 83 186 83 62 0 66 -2 109 -42z m932 -83 c44 -13 52 -20 60
-48 12 -46 3 -108 -20 -133 -46 -50 -170 -56 -216 -11 -21 21 -24 34 -23 83 1
71 18 99 68 112 55 14 73 14 131 -3z m-2703 -391 c39 -51 42 -96 11 -178 -30
-80 -39 -92 -79 -112 -38 -20 -68 -12 -117 32 -65 59 -88 185 -44 236 29 33
94 58 150 58 48 0 54 -3 79 -36z m2327 -89 c10 -4 33 -35 53 -70 32 -58 35
-70 35 -142 0 -72 -3 -84 -31 -126 -34 -51 -72 -79 -136 -98 -39 -11 -49 -10
-112 15 -57 22 -78 38 -118 84 -47 55 -48 58 -51 133 -4 84 5 111 57 166 22
23 43 33 73 37 24 3 54 8 68 10 32 6 140 -1 162 -9z m-2258 -319 c23 -9 49
-36 77 -78 l43 -63 1 -100 c0 -134 -14 -163 -96 -199 -33 -14 -77 -26 -97 -26
-49 0 -169 71 -186 111 -18 42 -2 200 26 256 49 98 141 137 232 99z m2893
-521 c28 -32 45 -93 37 -134 -4 -18 -22 -49 -40 -68 -32 -34 -36 -35 -92 -31
-133 9 -195 129 -113 220 48 54 167 62 208 13z m-2717 -175 c30 -16 60 -70 60
-107 0 -35 -48 -99 -84 -112 -12 -5 -45 0 -83 12 -51 17 -64 26 -72 49 -13 38
-2 124 18 142 35 31 117 40 161 16z m3382 -307 c21 -19 24 -89 5 -113 -19 -24
-109 -90 -122 -90 -14 0 -48 36 -65 69 -15 30 10 102 47 131 32 25 108 27 135
3z m-744 -77 c44 -23 180 -170 202 -217 27 -60 28 -209 2 -255 -63 -115 -96
-141 -217 -175 -93 -26 -109 -26 -192 2 -76 25 -142 78 -193 153 -46 67 -54
108 -41 199 17 118 80 181 271 270 82 39 126 45 168 23z m-2303 -151 c37 -36
32 -130 -9 -157 -33 -23 -150 4 -162 37 -10 24 12 88 38 112 21 20 46 28 91
32 10 0 29 -10 42 -24z"/>
<path d="M6287 10834 c-2 -3 -15 -7 -27 -9 -56 -11 -112 -101 -103 -164 5 -33
28 -71 42 -71 4 0 37 29 73 64 36 35 84 74 106 86 42 24 62 64 42 84 -11 11
-123 19 -133 10z"/>
<path d="M5643 10250 c-4 -4 -28 -15 -53 -24 -36 -14 -51 -27 -72 -65 -15 -26
-30 -65 -33 -87 -16 -101 110 -210 218 -190 51 10 129 65 149 106 22 42 23
106 3 140 -8 14 -21 39 -29 56 -13 27 -59 60 -78 56 -5 -1 -8 2 -8 7 0 10 -86
11 -97 1z"/>
<path d="M6245 8300 c-90 -21 -132 -78 -123 -171 9 -90 79 -152 170 -150 46 1
56 5 91 38 65 63 80 120 52 191 -18 45 -56 76 -105 88 -50 11 -52 11 -85 4z"/>
<path d="M8791 9742 c-42 -13 -60 -26 -83 -59 -84 -116 -13 -267 132 -281 43
-4 57 0 104 28 73 44 109 100 103 161 -5 63 -53 131 -107 153 -50 20 -80 19
-149 -2z"/>
<path d="M11467 11206 c-21 -8 -52 -17 -70 -20 -42 -9 -53 -18 -115 -98 -116
-150 -120 -251 -18 -404 45 -68 88 -96 174 -116 126 -28 307 51 379 166 31 49
42 158 24 232 -11 43 -64 135 -83 142 -4 2 -26 19 -48 37 -44 37 -136 75 -178
75 -15 -1 -44 -7 -65 -14z m173 -189 c52 -26 58 -40 59 -146 l1 -74 -51 -48
-52 -49 -71 0 c-110 0 -155 37 -175 147 -8 40 -5 54 19 107 25 57 31 63 76 78
61 21 132 15 194 -15z"/>
<path d="M3320 11203 c-14 -2 -54 -13 -90 -24 -54 -16 -74 -29 -117 -74 -81
-84 -88 -103 -88 -226 0 -100 2 -108 29 -150 45 -68 93 -105 181 -140 99 -39
155 -37 247 9 74 36 106 67 143 140 25 49 27 59 23 145 -4 88 -6 95 -46 156
-23 36 -59 79 -80 98 -33 29 -139 75 -166 72 -6 -1 -22 -4 -36 -6z m167 -207
c28 -32 48 -122 38 -172 -7 -40 -68 -110 -96 -112 -8 0 -25 -3 -39 -6 -63 -15
-76 -14 -119 7 -65 32 -101 87 -101 154 0 101 39 150 141 177 49 12 59 12 104
-5 28 -10 60 -30 72 -43z"/>
<path d="M11470 7161 c-14 -5 -55 -22 -92 -39 -83 -38 -133 -101 -177 -220
-28 -74 -30 -88 -21 -129 6 -25 16 -55 22 -67 24 -46 126 -148 181 -182 56
-35 62 -36 130 -32 99 7 197 56 263 133 57 66 74 103 78 170 4 72 -12 133 -49
188 -80 119 -247 207 -335 178z m146 -186 c73 -35 84 -54 84 -147 0 -90 -10
-124 -42 -133 -13 -4 -33 -16 -45 -27 -23 -22 -96 -34 -137 -24 -13 3 -42 23
-65 43 -32 30 -42 48 -49 88 -28 167 104 271 254 200z"/>
<path d="M3240 7127 c-80 -34 -163 -105 -194 -165 -39 -76 -40 -196 -1 -273
27 -51 105 -126 165 -158 50 -27 72 -33 122 -32 87 0 149 33 236 126 82 88 97
132 90 250 -8 125 -77 210 -209 259 -90 33 -117 32 -209 -7z m186 -157 c35
-16 69 -40 76 -52 7 -14 12 -58 12 -108 0 -134 -38 -185 -138 -182 -67 2 -97
13 -151 58 -37 30 -46 44 -55 90 -18 88 4 165 53 186 18 7 46 18 62 25 46 19
73 15 141 -17z"/>
<path d="M3760 3958 c-11 -18 -20 -39 -20 -45 0 -7 -13 -34 -29 -60 -16 -27
-32 -62 -35 -79 -8 -35 -53 -110 -123 -202 -26 -35 -61 -87 -78 -114 -33 -57
-40 -61 -108 -79 -51 -13 -67 -33 -67 -84 0 -12 -12 -63 -26 -111 -34 -116
-34 -201 0 -309 15 -44 26 -88 26 -98 0 -10 11 -29 24 -42 14 -14 31 -36 38
-49 64 -120 86 -144 175 -194 31 -18 52 -5 112 71 28 34 62 74 77 89 26 25 27
32 27 115 0 70 -4 96 -21 130 -33 64 -30 132 8 185 17 22 30 46 30 53 0 6 11
18 24 25 18 9 28 27 35 59 6 25 13 56 17 69 5 18 2 22 -14 22 -12 0 -27 -10
-33 -22 -7 -13 -34 -49 -61 -81 -26 -32 -50 -68 -53 -80 -15 -68 -21 -105 -19
-132 3 -65 18 -132 40 -182 30 -67 30 -87 0 -106 -70 -46 -182 54 -205 183 -6
36 -14 80 -17 99 -6 31 17 152 37 196 11 22 47 77 79 116 12 14 29 37 38 52 9
14 38 50 64 80 26 30 55 74 63 98 19 54 38 69 85 69 33 0 48 -12 166 -127 140
-138 192 -206 250 -323 31 -63 37 -86 38 -141 1 -59 -2 -72 -30 -110 -17 -24
-33 -49 -35 -54 -7 -19 -93 -92 -116 -99 -36 -11 -93 4 -110 30 -14 22 -13 27
24 81 51 75 83 146 83 180 0 16 -12 46 -25 68 -14 22 -25 48 -25 58 0 9 -4 17
-8 17 -14 0 -86 -77 -158 -168 -26 -32 -26 -33 -9 -80 49 -138 55 -173 45
-255 -9 -74 -11 -79 -58 -125 -26 -26 -63 -55 -82 -65 -19 -10 -46 -27 -60
-37 -21 -17 -23 -21 -10 -29 28 -19 145 -24 250 -12 92 11 115 18 193 58 100
52 168 113 221 201 75 120 104 202 112 315 5 77 4 88 -30 179 -40 110 -87 208
-122 254 -13 17 -24 35 -24 40 0 5 -16 27 -35 49 -19 22 -35 43 -35 46 0 15
-84 89 -100 89 -63 0 -136 66 -222 200 -39 61 -125 150 -145 150 -7 0 -22 -15
-33 -32z"/>
<path d="M2815 3662 c-78 -14 -95 -23 -115 -62 -18 -35 -20 -59 -20 -212 0
-246 -10 -260 -183 -239 -51 6 -114 11 -142 13 -58 2 -91 14 -102 37 -4 9 -10
108 -13 221 l-5 205 -29 13 c-68 33 -193 24 -229 -16 -25 -28 -30 -121 -31
-592 -1 -497 3 -539 55 -565 39 -21 143 -19 180 2 39 23 49 58 56 207 7 153
11 174 44 198 33 25 162 47 271 48 118 0 119 -2 125 -193 4 -144 20 -224 48
-247 8 -7 43 -14 77 -17 76 -5 122 15 151 65 18 31 19 61 21 530 1 467 0 500
-18 539 -10 23 -26 45 -35 49 -27 11 -85 20 -106 16z"/>
<path d="M8635 3650 c-49 -11 -119 -35 -155 -53 -71 -35 -158 -114 -185 -168
-9 -19 -27 -45 -39 -59 -12 -14 -37 -65 -55 -114 -30 -81 -33 -98 -32 -199 0
-60 3 -124 6 -141 11 -52 62 -152 109 -213 55 -73 150 -163 171 -163 9 0 42
-13 73 -30 85 -44 232 -67 325 -51 39 6 83 18 97 25 14 8 57 31 95 51 114 60
135 75 153 114 26 54 18 84 -30 116 -52 34 -127 37 -191 7 -57 -28 -181 -46
-269 -40 -116 7 -183 60 -234 183 -43 104 -41 182 11 298 24 55 51 99 71 117
41 36 192 84 243 77 49 -6 159 -54 196 -84 80 -68 242 36 211 135 -6 21 -26
45 -57 67 -26 19 -50 35 -54 35 -3 0 -26 14 -51 31 -106 72 -252 94 -409 59z"/>
<path d="M10335 3658 c-115 -14 -148 -35 -237 -149 -145 -187 -196 -243 -245
-273 l-41 -25 -18 27 c-15 22 -19 58 -24 193 -4 91 -10 172 -15 178 -12 21
-71 41 -120 41 -56 0 -110 -21 -125 -49 -18 -34 -19 -1036 -1 -1078 18 -43 87
-78 141 -70 97 13 118 47 127 212 6 104 20 148 57 177 38 31 69 23 117 -31 57
-64 129 -162 165 -225 21 -37 80 -93 119 -114 39 -20 168 -27 223 -13 48 13
77 49 68 84 -3 13 -35 52 -72 87 -137 133 -176 177 -232 258 -92 134 -98 145
-112 184 l-13 36 56 63 c31 35 73 92 93 126 38 65 75 102 161 163 55 39 113
115 113 148 0 15 -12 28 -39 42 -41 20 -45 21 -146 8z"/>
<path d="M5045 3650 c-258 -4 -294 -7 -318 -23 -34 -22 -47 -54 -47 -117 0
-60 15 -94 47 -109 13 -6 74 -14 136 -17 122 -6 159 -20 176 -63 6 -15 12
-184 14 -401 4 -397 8 -433 50 -443 99 -24 165 -12 201 36 20 28 21 38 21 422
l0 393 23 25 c20 21 36 25 135 34 67 7 127 18 149 29 90 43 90 182 0 222 -42
18 -122 20 -587 12z"/>
<path d="M10970 3650 c-140 -10 -147 -13 -166 -74 -17 -55 -24 -254 -24 -726
-1 -260 1 -285 28 -340 15 -31 23 -36 72 -45 88 -17 665 -12 719 6 53 17 64
43 59 142 -3 60 -4 62 -33 68 -16 3 -133 4 -260 1 -214 -4 -232 -3 -253 14
-41 34 -42 159 -1 203 19 20 29 21 187 21 112 0 175 4 191 13 31 15 43 58 36
125 -9 78 -28 84 -233 76 -112 -5 -164 -4 -180 5 -28 15 -45 78 -38 142 7 57
15 76 46 104 21 19 37 20 244 21 264 0 251 -1 276 24 17 17 20 33 20 100 0 72
-2 81 -23 95 -13 8 -57 19 -98 25 -81 10 -419 11 -569 0z"/>
<path d="M12230 3657 c-3 -3 -43 -7 -89 -8 -82 -2 -169 -14 -180 -25 -8 -8
-11 -1052 -3 -1099 7 -40 8 -40 72 -57 67 -17 116 -15 161 8 32 16 39 49 39
201 0 61 3 119 6 128 17 42 165 68 199 34 8 -8 43 -71 78 -142 76 -149 121
-212 162 -227 17 -6 59 -13 95 -16 54 -4 70 -2 98 15 20 13 32 29 32 42 0 27
-46 127 -71 154 -10 11 -26 38 -35 60 -9 22 -24 52 -34 66 -40 55 -36 71 30
137 37 38 66 78 76 104 8 24 22 54 32 68 12 18 17 53 20 127 4 96 3 105 -24
159 -38 75 -115 159 -177 192 -27 15 -60 33 -73 40 -34 19 -400 53 -414 39z
m286 -267 c92 -48 141 -115 128 -173 -8 -38 -77 -113 -126 -138 -27 -14 -58
-19 -116 -19 -165 0 -174 10 -176 174 -1 101 1 116 19 136 31 35 74 49 146 50
56 0 77 -5 125 -30z"/>
<path d="M6550 3641 c-80 -9 -86 -12 -106 -59 -21 -48 -43 -514 -38 -800 4
-229 15 -277 73 -306 35 -18 104 -21 148 -6 40 15 53 60 53 188 0 183 -6 180
314 197 123 7 174 26 247 92 95 86 125 168 116 317 -5 77 -11 102 -41 161 -19
39 -50 85 -69 103 -50 49 -148 91 -236 103 -103 13 -381 19 -461 10z m359
-231 c65 -12 113 -34 151 -70 28 -26 30 -33 30 -102 0 -82 0 -82 -54 -122 -52
-39 -118 -57 -201 -55 -84 2 -115 12 -146 45 -21 23 -23 34 -24 125 l0 100 40
34 c61 53 109 63 204 45z"/>
<path d="M7682 3628 c-12 -6 -31 -25 -42 -43 -30 -48 -41 -252 -38 -686 3
-361 4 -378 23 -399 24 -27 74 -50 109 -50 13 0 44 9 69 19 33 14 47 27 56 51
12 37 17 984 5 1058 -5 33 -12 46 -31 53 -33 12 -122 10 -151 -3z"/>
</g>
</svg>
